<svg xmlns="http://www.w3.org/2000/svg" xml:space="preserve" width="110" height="110" version="1.0" id="engagement">
  <circle cx="55" cy="55" r="55" fill="#FABC3D"></circle>
  <path fill="#5B5C5F" d="M75 55V23H35v32l-8 16h56l-8-16zm-36 0V27h32v28H39z"></path>
  <path fill="#3E3E3F" d="M27 71h56v16H27zM39 27h32v28H39z"></path>
  <path fill="#FA5655" d="m45.05 35.858 4.975-4.975h9.95l4.975 4.975z"></path>
  <path fill="#5B5C5F" d="M27 71v16h9.024l16-16z"></path>
  <path fill="#DF2C2C" d="m64.95 35.858-4.975 7.463h-9.95l-4.975-7.463z"></path>
  <path fill="#F79392" d="M50.025 30.883 55 35.858l4.975-4.975z"></path>
  <path fill="#FA5655" d="M59.975 43.321 55 35.858l-4.975 7.463z"></path>
  <path fill="#FFF" d="M73.081 27.184c-2.863.403-4.495 2.035-4.897 4.897a.1.1 0 0 1-.198 0c-.402-2.862-2.035-4.495-4.897-4.897a.1.1 0 0 1 0-.198c2.863-.403 4.495-2.035 4.897-4.897a.1.1 0 0 1 .198 0c.402 2.862 2.035 4.495 4.897 4.897a.1.1 0 0 1 0 .198zM41.081 43.184c-2.863.403-4.495 2.035-4.897 4.897a.1.1 0 0 1-.198 0c-.402-2.862-2.035-4.495-4.897-4.897a.1.1 0 0 1 0-.198c2.863-.403 4.495-2.035 4.897-4.897a.1.1 0 0 1 .198 0c.402 2.862 2.035 4.495 4.897 4.897a.1.1 0 0 1 0 .198z"></path>
  <path fill="#9E9FA0" d="M27 71h25.024l16-16H35z"></path>
  <path fill="#FFF" d="M71 55s-3-4-16-4-16 4-16 4l-6 14h44l-6-14z"></path>
  <path fill="#FACB1B" d="M60 45.933V43.32H50v2.613c-4.124 1.899-7 6.057-7 10.887 0 1.782.382 3.499 1.136 5.102l2.715-1.276A8.911 8.911 0 0 1 46 56.821c0-4.962 4.037-9 9-9s9 4.038 9 9a8.922 8.922 0 0 1-.878 3.883L65.827 62A11.891 11.891 0 0 0 67 56.821c0-4.83-2.876-8.988-7-10.888z"></path>
  <path fill="#FBE158" d="M50 43.321v2.613c-4.124 1.899-7 6.057-7 10.887 0 .21.023.416.034.624l3.415-3.415a9.034 9.034 0 0 1 5.76-5.76l4.948-4.948H50z"></path>
</svg>
